{
    "asset" : {
        "generator" : "Khronos glTF Blender I/O v1.8.19",
        "version" : "2.0"
    },
    "extensionsUsed" : [
        "KHR_materials_transmission"
    ],
    "scene" : 0,
    "scenes" : [
        {
            "name" : "Scene",
            "nodes" : [
                0,
                1,
                2,
                3,
                4,
                5,
                6,
                7,
                8,
                9
            ]
        }
    ],
    "nodes" : [
        {
            "mesh" : 0,
            "name" : "Sphere",
            "scale" : [
                0.5000002980232239,
                0.5,
                0.5000004768371582
            ],
            "translation" : [
                0,
                -0.5,
                0
            ]
        },
        {
            "mesh" : 1,
            "name" : "Sphere.001",
            "scale" : [
                0.5000002980232239,
                0.5,
                0.5000004768371582
            ],
            "translation" : [
                1.5,
                -0.5,
                0
            ]
        },
        {
            "mesh" : 2,
            "name" : "Sphere.002",
            "scale" : [
                0.5000002980232239,
                0.5,
                0.5000004768371582
            ],
            "translation" : [
                3,
                -0.5,
                0
            ]
        },
        {
            "mesh" : 3,
            "name" : "Plane",
            "scale" : [
                6.751185894012451,
                14.289324760437012,
                -2.3435819149017334
            ],
            "translation" : [
                2,
                -1,
                0
            ]
        },
        {
            "mesh" : 4,
            "name" : "Text",
            "rotation" : [
                0.7071068286895752,
                0,
                0,
                0.7071068286895752
            ],
            "scale" : [
                0.125,
                0.125,
                0.125
            ],
            "translation" : [
                0,
                -0.800000011920929,
                0.8999999165534973
            ]
        },
        {
            "mesh" : 5,
            "name" : "glass",
            "rotation" : [
                0.7071067690849304,
                0,
                0,
                0.7071068286895752
            ],
            "scale" : [
                0.5,
                0.5,
                0.5
            ],
            "translation" : [
                1.4884705543518066,
                -0.699999988079071,
                -1.2000001668930054
            ]
        },
        {
            "mesh" : 6,
            "name" : "Text.002",
            "rotation" : [
                0.7071068286895752,
                0,
                0,
                0.7071068286895752
            ],
            "scale" : [
                0.125,
                0.125,
                0.125
            ],
            "translation" : [
                1.5000001192092896,
                -0.800000011920929,
                0.8999999165534973
            ]
        },
        {
            "mesh" : 7,
            "name" : "Text.006",
            "scale" : [
                0.25,
                0.25,
                0.25
            ],
            "translation" : [
                15.199999809265137,
                0,
                1.5999999046325684
            ]
        },
        {
            "mesh" : 8,
            "name" : "Plane.001",
            "scale" : [
                9.04808521270752,
                0.010551703162491322,
                0.4853782653808594
            ],
            "translation" : [
                7.402534008026123,
                -43.64363098144531,
                2.3936336040496826
            ]
        },
        {
            "mesh" : 9,
            "name" : "Text.001",
            "rotation" : [
                0.7071068286895752,
                0,
                0,
                0.7071068286895752
            ],
            "scale" : [
                0.125,
                0.125,
                0.125
            ],
            "translation" : [
                3,
                -0.800000011920929,
                0.8999999165534973
            ]
        }
    ],
    "materials" : [
        {
            "doubleSided" : true,
            "name" : "Roughness 0",
            "pbrMetallicRoughness" : {
                "baseColorFactor" : [
                    0.17181693017482758,
                    0.05176461488008499,
                    0.8000000715255737,
                    1
                ],
                "metallicFactor" : 0,
                "roughnessFactor" : 0
            }
        },
        {
            "doubleSided" : true,
            "extensions" : {
                "KHR_materials_transmission" : {
                    "transmissionFactor" : 1
                }
            },
            "name" : "Material.006",
            "pbrMetallicRoughness" : {
                "baseColorFactor" : [
                    1,
                    0.8084654211997986,
                    0.8903417587280273,
                    0.5
                ],
                "metallicFactor" : 0,
                "roughnessFactor" : 0
            }
        },
        {
            "doubleSided" : true,
            "name" : "Material.012",
            "pbrMetallicRoughness" : {}
        },
        {
            "doubleSided" : true,
            "name" : "negro",
            "pbrMetallicRoughness" : {
                "baseColorFactor" : [
                    0.046665091067552567,
                    0.046665091067552567,
                    0.046665091067552567,
                    1
                ],
                "roughnessFactor" : 0.5
            }
        },
        {
            "doubleSided" : true,
            "name" : "Material.003",
            "pbrMetallicRoughness" : {
                "baseColorTexture" : {
                    "index" : 0
                },
                "metallicFactor" : 0,
                "roughnessFactor" : 0.5
            }
        }
    ],
    "meshes" : [
        {
            "name" : "Sphere",
            "primitives" : [
                {
                    "attributes" : {
                        "POSITION" : 0,
                        "NORMAL" : 1,
                        "TEXCOORD_0" : 2
                    },
                    "indices" : 3,
                    "material" : 0
                }
            ]
        },
        {
            "name" : "Sphere.001",
            "primitives" : [
                {
                    "attributes" : {
                        "POSITION" : 4,
                        "NORMAL" : 5,
                        "TEXCOORD_0" : 6
                    },
                    "indices" : 3,
                    "material" : 1
                }
            ]
        },
        {
            "name" : "Sphere.002",
            "primitives" : [
                {
                    "attributes" : {
                        "POSITION" : 7,
                        "NORMAL" : 8,
                        "TEXCOORD_0" : 9
                    },
                    "indices" : 3,
                    "material" : 2
                }
            ]
        },
        {
            "name" : "Plane",
            "primitives" : [
                {
                    "attributes" : {
                        "POSITION" : 10,
                        "NORMAL" : 11,
                        "TEXCOORD_0" : 12
                    },
                    "indices" : 13,
                    "material" : 3
                }
            ]
        },
        {
            "name" : "Text",
            "primitives" : [
                {
                    "attributes" : {
                        "POSITION" : 14,
                        "NORMAL" : 15,
                        "TEXCOORD_0" : 16
                    },
                    "indices" : 17
                }
            ]
        },
        {
            "name" : "Text.001",
            "primitives" : [
                {
                    "attributes" : {
                        "POSITION" : 18,
                        "NORMAL" : 19,
                        "TEXCOORD_0" : 20
                    },
                    "indices" : 21
                }
            ]
        },
        {
            "name" : "Text.002",
            "primitives" : [
                {
                    "attributes" : {
                        "POSITION" : 22,
                        "NORMAL" : 23,
                        "TEXCOORD_0" : 24
                    },
                    "indices" : 17
                }
            ]
        },
        {
            "name" : "Text.006",
            "primitives" : [
                {
                    "attributes" : {
                        "POSITION" : 25,
                        "NORMAL" : 26,
                        "TEXCOORD_0" : 27
                    },
                    "indices" : 28
                }
            ]
        },
        {
            "name" : "Plane.002",
            "primitives" : [
                {
                    "attributes" : {
                        "POSITION" : 29,
                        "NORMAL" : 30,
                        "TEXCOORD_0" : 31
                    },
                    "indices" : 32,
                    "material" : 4
                }
            ]
        },
        {
            "name" : "Text.007",
            "primitives" : [
                {
                    "attributes" : {
                        "POSITION" : 33,
                        "NORMAL" : 34,
                        "TEXCOORD_0" : 35
                    },
                    "indices" : 21
                }
            ]
        }
    ],
    "textures" : [
        {
            "sampler" : 0,
            "source" : 0
        }
    ],
    "images" : [
        {
            "mimeType" : "image/png",
            "name" : "datos",
            "uri" : "datos.png"
        }
    ],
    "accessors" : [
        {
            "bufferView" : 0,
            "componentType" : 5126,
            "count" : 559,
            "max" : [
                0.9999997019767761,
                1,
                0.9999994039535522
            ],
            "min" : [
                -0.9999990463256836,
                -1,
                -0.9999987483024597
            ],
            "type" : "VEC3"
        },
        {
            "bufferView" : 1,
            "componentType" : 5126,
            "count" : 559,
            "type" : "VEC3"
        },
        {
            "bufferView" : 2,
            "componentType" : 5126,
            "count" : 559,
            "type" : "VEC2"
        },
        {
            "bufferView" : 3,
            "componentType" : 5123,
            "count" : 2880,
            "type" : "SCALAR"
        },
        {
            "bufferView" : 4,
            "componentType" : 5126,
            "count" : 559,
            "max" : [
                0.9999997019767761,
                1,
                0.9999994039535522
            ],
            "min" : [
                -0.9999990463256836,
                -1,
                -0.9999987483024597
            ],
            "type" : "VEC3"
        },
        {
            "bufferView" : 5,
            "componentType" : 5126,
            "count" : 559,
            "type" : "VEC3"
        },
        {
            "bufferView" : 6,
            "componentType" : 5126,
            "count" : 559,
            "type" : "VEC2"
        },
        {
            "bufferView" : 7,
            "componentType" : 5126,
            "count" : 559,
            "max" : [
                0.9999997019767761,
                1,
                0.9999994039535522
            ],
            "min" : [
                -0.9999990463256836,
                -1,
                -0.9999987483024597
            ],
            "type" : "VEC3"
        },
        {
            "bufferView" : 8,
            "componentType" : 5126,
            "count" : 559,
            "type" : "VEC3"
        },
        {
            "bufferView" : 9,
            "componentType" : 5126,
            "count" : 559,
            "type" : "VEC2"
        },
        {
            "bufferView" : 10,
            "componentType" : 5126,
            "count" : 24,
            "max" : [
                1,
                0,
                1
            ],
            "min" : [
                -1,
                -0.06236151233315468,
                -1
            ],
            "type" : "VEC3"
        },
        {
            "bufferView" : 11,
            "componentType" : 5126,
            "count" : 24,
            "type" : "VEC3"
        },
        {
            "bufferView" : 12,
            "componentType" : 5126,
            "count" : 24,
            "type" : "VEC2"
        },
        {
            "bufferView" : 13,
            "componentType" : 5123,
            "count" : 36,
            "type" : "SCALAR"
        },
        {
            "bufferView" : 14,
            "componentType" : 5126,
            "count" : 1241,
            "max" : [
                3.2250006198883057,
                0,
                0.23000000417232513
            ],
            "min" : [
                -3.1840004920959473,
                0,
                -0.6910000443458557
            ],
            "type" : "VEC3"
        },
        {
            "bufferView" : 15,
            "componentType" : 5126,
            "count" : 1241,
            "type" : "VEC3"
        },
        {
            "bufferView" : 16,
            "componentType" : 5126,
            "count" : 1241,
            "type" : "VEC2"
        },
        {
            "bufferView" : 17,
            "componentType" : 5123,
            "count" : 2709,
            "type" : "SCALAR"
        },
        {
            "bufferView" : 18,
            "componentType" : 5126,
            "count" : 1132,
            "max" : [
                2.308000326156616,
                0,
                0.009000000543892384
            ],
            "min" : [
                -2.2870001792907715,
                0,
                -0.6910000443458557
            ],
            "type" : "VEC3"
        },
        {
            "bufferView" : 19,
            "componentType" : 5126,
            "count" : 1132,
            "type" : "VEC3"
        },
        {
            "bufferView" : 20,
            "componentType" : 5126,
            "count" : 1132,
            "type" : "VEC2"
        },
        {
            "bufferView" : 21,
            "componentType" : 5123,
            "count" : 2490,
            "type" : "SCALAR"
        },
        {
            "bufferView" : 22,
            "componentType" : 5126,
            "count" : 1241,
            "max" : [
                3.2250006198883057,
                0,
                0.23000000417232513
            ],
            "min" : [
                -3.1840004920959473,
                0,
                -0.6910000443458557
            ],
            "type" : "VEC3"
        },
        {
            "bufferView" : 23,
            "componentType" : 5126,
            "count" : 1241,
            "type" : "VEC3"
        },
        {
            "bufferView" : 24,
            "componentType" : 5126,
            "count" : 1241,
            "type" : "VEC2"
        },
        {
            "bufferView" : 25,
            "componentType" : 5126,
            "count" : 1595,
            "max" : [
                2.8524999618530273,
                0,
                0.23000000417232513
            ],
            "min" : [
                -2.8375000953674316,
                0,
                -0.6910000443458557
            ],
            "type" : "VEC3"
        },
        {
            "bufferView" : 26,
            "componentType" : 5126,
            "count" : 1595,
            "type" : "VEC3"
        },
        {
            "bufferView" : 27,
            "componentType" : 5126,
            "count" : 1595,
            "type" : "VEC2"
        },
        {
            "bufferView" : 28,
            "componentType" : 5123,
            "count" : 3579,
            "type" : "SCALAR"
        },
        {
            "bufferView" : 29,
            "componentType" : 5126,
            "count" : 4,
            "max" : [
                1,
                0,
                1
            ],
            "min" : [
                -1,
                0,
                -1
            ],
            "type" : "VEC3"
        },
        {
            "bufferView" : 30,
            "componentType" : 5126,
            "count" : 4,
            "type" : "VEC3"
        },
        {
            "bufferView" : 31,
            "componentType" : 5126,
            "count" : 4,
            "type" : "VEC2"
        },
        {
            "bufferView" : 32,
            "componentType" : 5123,
            "count" : 6,
            "type" : "SCALAR"
        },
        {
            "bufferView" : 33,
            "componentType" : 5126,
            "count" : 1132,
            "max" : [
                2.308000326156616,
                0,
                0.009000000543892384
            ],
            "min" : [
                -2.2870001792907715,
                0,
                -0.6910000443458557
            ],
            "type" : "VEC3"
        },
        {
            "bufferView" : 34,
            "componentType" : 5126,
            "count" : 1132,
            "type" : "VEC3"
        },
        {
            "bufferView" : 35,
            "componentType" : 5126,
            "count" : 1132,
            "type" : "VEC2"
        }
    ],
    "bufferViews" : [
        {
            "buffer" : 0,
            "byteLength" : 6708,
            "byteOffset" : 0
        },
        {
            "buffer" : 0,
            "byteLength" : 6708,
            "byteOffset" : 6708
        },
        {
            "buffer" : 0,
            "byteLength" : 4472,
            "byteOffset" : 13416
        },
        {
            "buffer" : 0,
            "byteLength" : 5760,
            "byteOffset" : 17888
        },
        {
            "buffer" : 0,
            "byteLength" : 6708,
            "byteOffset" : 23648
        },
        {
            "buffer" : 0,
            "byteLength" : 6708,
            "byteOffset" : 30356
        },
        {
            "buffer" : 0,
            "byteLength" : 4472,
            "byteOffset" : 37064
        },
        {
            "buffer" : 0,
            "byteLength" : 6708,
            "byteOffset" : 41536
        },
        {
            "buffer" : 0,
            "byteLength" : 6708,
            "byteOffset" : 48244
        },
        {
            "buffer" : 0,
            "byteLength" : 4472,
            "byteOffset" : 54952
        },
        {
            "buffer" : 0,
            "byteLength" : 288,
            "byteOffset" : 59424
        },
        {
            "buffer" : 0,
            "byteLength" : 288,
            "byteOffset" : 59712
        },
        {
            "buffer" : 0,
            "byteLength" : 192,
            "byteOffset" : 60000
        },
        {
            "buffer" : 0,
            "byteLength" : 72,
            "byteOffset" : 60192
        },
        {
            "buffer" : 0,
            "byteLength" : 14892,
            "byteOffset" : 60264
        },
        {
            "buffer" : 0,
            "byteLength" : 14892,
            "byteOffset" : 75156
        },
        {
            "buffer" : 0,
            "byteLength" : 9928,
            "byteOffset" : 90048
        },
        {
            "buffer" : 0,
            "byteLength" : 5418,
            "byteOffset" : 99976
        },
        {
            "buffer" : 0,
            "byteLength" : 13584,
            "byteOffset" : 105396
        },
        {
            "buffer" : 0,
            "byteLength" : 13584,
            "byteOffset" : 118980
        },
        {
            "buffer" : 0,
            "byteLength" : 9056,
            "byteOffset" : 132564
        },
        {
            "buffer" : 0,
            "byteLength" : 4980,
            "byteOffset" : 141620
        },
        {
            "buffer" : 0,
            "byteLength" : 14892,
            "byteOffset" : 146600
        },
        {
            "buffer" : 0,
            "byteLength" : 14892,
            "byteOffset" : 161492
        },
        {
            "buffer" : 0,
            "byteLength" : 9928,
            "byteOffset" : 176384
        },
        {
            "buffer" : 0,
            "byteLength" : 19140,
            "byteOffset" : 186312
        },
        {
            "buffer" : 0,
            "byteLength" : 19140,
            "byteOffset" : 205452
        },
        {
            "buffer" : 0,
            "byteLength" : 12760,
            "byteOffset" : 224592
        },
        {
            "buffer" : 0,
            "byteLength" : 7158,
            "byteOffset" : 237352
        },
        {
            "buffer" : 0,
            "byteLength" : 48,
            "byteOffset" : 244512
        },
        {
            "buffer" : 0,
            "byteLength" : 48,
            "byteOffset" : 244560
        },
        {
            "buffer" : 0,
            "byteLength" : 32,
            "byteOffset" : 244608
        },
        {
            "buffer" : 0,
            "byteLength" : 12,
            "byteOffset" : 244640
        },
        {
            "buffer" : 0,
            "byteLength" : 13584,
            "byteOffset" : 244652
        },
        {
            "buffer" : 0,
            "byteLength" : 13584,
            "byteOffset" : 258236
        },
        {
            "buffer" : 0,
            "byteLength" : 9056,
            "byteOffset" : 271820
        }
    ],
    "samplers" : [
        {
            "magFilter" : 9729,
            "minFilter" : 9987
        }
    ],
    "buffers" : [
        {
            "byteLength" : 280876,
            "uri" : "glass.bin"
        }
    ]
}
